<svg width="100" height="100" viewBox="0 0 100 100" fill="none" xmlns="http://www.w3.org/2000/svg">
<path d="M0 4C0 1.79086 1.79086 0 4 0H96C98.2091 0 100 1.79086 100 4V96C100 98.2091 98.2091 100 96 100H4C1.79086 100 0 98.2091 0 96V4Z" fill="#151619"/>
<rect x="47.5" y="30" width="2.5" height="22.5" fill="#D9D9D9"/>
<circle cx="48.75" cy="26.25" r="8.75" fill="#FF0000"/>
<path d="M17.5 56.4C17.5 54.1598 17.5 53.0397 17.936 52.184C18.3195 51.4314 18.9314 50.8195 19.684 50.436C20.5397 50 21.6598 50 23.9 50H73.6C75.8402 50 76.9603 50 77.816 50.436C78.5686 50.8195 79.1805 51.4314 79.564 52.184C80 53.0397 80 54.1598 80 56.4V100H17.5V56.4Z" fill="#706A6A"/>
<path d="M50 62.5L61.7557 66.0809L69.0211 75.4559V87.0441L61.7557 96.4191L50 100L38.2443 96.4191L30.9789 87.0441V75.4559L38.2443 66.0809L50 62.5Z" fill="#D9D9D9"/>
<path d="M66.25 55L68.4542 55.7162L69.8165 57.5912V59.9088L68.4542 61.7838L66.25 62.5L64.0458 61.7838L62.6835 59.9088V57.5912L64.0458 55.7162L66.25 55Z" fill="#D9D9D9"/>
</svg>
